<svg xmlns="http://www.w3.org/2000/svg" viewBox="0 0 700 500" width="700" height="500">
<defs><linearGradient id="dec201" x1="0" y1="0" x2="1" y2="1">
    <stop offset="0%" stop-color="#2f3d35"/><stop offset="100%" stop-color="#1c2a24"/></linearGradient></defs>
<rect width="700" height="500" fill="url(#dec201)"/><circle cx="108" cy="189" r="18" fill="#ffffff" opacity="0.9"/>
<line x1="108" y1="171" x2="108" y2="157" stroke="#5c5044" stroke-width="2"/>
<circle cx="253" cy="320" r="34" fill="#ffffff" opacity="0.9"/>
<line x1="253" y1="285" x2="253" y2="271" stroke="#5c5044" stroke-width="2"/>
<circle cx="323" cy="378" r="33" fill="#e8b04b" opacity="0.9"/>
<line x1="323" y1="345" x2="323" y2="331" stroke="#5c5044" stroke-width="2"/>
<circle cx="587" cy="420" r="19" fill="#e8b04b" opacity="0.9"/>
<line x1="587" y1="400" x2="587" y2="386" stroke="#5c5044" stroke-width="2"/>
<circle cx="190" cy="318" r="23" fill="#ffffff" opacity="0.9"/>
<line x1="190" y1="296" x2="190" y2="282" stroke="#5c5044" stroke-width="2"/>
<circle cx="130" cy="270" r="41" fill="#7c9e8e" opacity="0.9"/>
<line x1="130" y1="230" x2="130" y2="216" stroke="#5c5044" stroke-width="2"/>
<circle cx="443" cy="86" r="32" fill="#c0453f" opacity="0.9"/>
<line x1="443" y1="54" x2="443" y2="40" stroke="#5c5044" stroke-width="2"/>
<circle cx="496" cy="327" r="30" fill="#ffffff" opacity="0.9"/>
<line x1="496" y1="297" x2="496" y2="283" stroke="#5c5044" stroke-width="2"/>
<circle cx="342" cy="342" r="25" fill="#ffffff" opacity="0.9"/>
<line x1="342" y1="316" x2="342" y2="302" stroke="#5c5044" stroke-width="2"/>
</svg>