<svg xmlns="http://www.w3.org/2000/svg" viewBox="0 0 700 900" width="700" height="900">
<defs><linearGradient id="dec202" x1="0" y1="0" x2="1" y2="1">
    <stop offset="0%" stop-color="#33261f"/><stop offset="100%" stop-color="#211814"/></linearGradient></defs>
<rect width="700" height="900" fill="url(#dec202)"/><circle cx="498" cy="541" r="28" fill="#e8b04b" opacity="0.9"/>
<line x1="498" y1="513" x2="498" y2="499" stroke="#5c5044" stroke-width="2"/>
<circle cx="180" cy="386" r="19" fill="#7c9e8e" opacity="0.9"/>
<line x1="180" y1="366" x2="180" y2="352" stroke="#5c5044" stroke-width="2"/>
<circle cx="546" cy="158" r="31" fill="#e8b04b" opacity="0.9"/>
<line x1="546" y1="127" x2="546" y2="113" stroke="#5c5044" stroke-width="2"/>
<circle cx="203" cy="532" r="36" fill="#e8b04b" opacity="0.9"/>
<line x1="203" y1="496" x2="203" y2="482" stroke="#5c5044" stroke-width="2"/>
<circle cx="557" cy="341" r="21" fill="#7c9e8e" opacity="0.9"/>
<line x1="557" y1="320" x2="557" y2="306" stroke="#5c5044" stroke-width="2"/>
<circle cx="487" cy="657" r="34" fill="#e8b04b" opacity="0.9"/>
<line x1="487" y1="623" x2="487" y2="609" stroke="#5c5044" stroke-width="2"/>
<circle cx="492" cy="417" r="39" fill="#7c9e8e" opacity="0.9"/>
<line x1="492" y1="378" x2="492" y2="364" stroke="#5c5044" stroke-width="2"/>
<circle cx="222" cy="164" r="40" fill="#c0453f" opacity="0.9"/>
<line x1="222" y1="124" x2="222" y2="110" stroke="#5c5044" stroke-width="2"/>
<circle cx="92" cy="299" r="22" fill="#e8b04b" opacity="0.9"/>
<line x1="92" y1="277" x2="92" y2="263" stroke="#5c5044" stroke-width="2"/>
</svg>