<svg xmlns="http://www.w3.org/2000/svg" viewBox="0 0 700 700" width="700" height="700">
<defs><linearGradient id="dec203" x1="0" y1="0" x2="1" y2="1">
    <stop offset="0%" stop-color="#3a2c22"/><stop offset="100%" stop-color="#241c16"/></linearGradient></defs>
<rect width="700" height="700" fill="url(#dec203)"/><circle cx="121" cy="518" r="32" fill="#e8b04b" opacity="0.9"/>
<line x1="121" y1="485" x2="121" y2="471" stroke="#5c5044" stroke-width="2"/>
<circle cx="86" cy="591" r="41" fill="#ffffff" opacity="0.9"/>
<line x1="86" y1="550" x2="86" y2="536" stroke="#5c5044" stroke-width="2"/>
<circle cx="413" cy="459" r="37" fill="#ffffff" opacity="0.9"/>
<line x1="413" y1="423" x2="413" y2="409" stroke="#5c5044" stroke-width="2"/>
<circle cx="430" cy="471" r="21" fill="#c0453f" opacity="0.9"/>
<line x1="430" y1="450" x2="430" y2="436" stroke="#5c5044" stroke-width="2"/>
<circle cx="382" cy="591" r="26" fill="#ffffff" opacity="0.9"/>
<line x1="382" y1="564" x2="382" y2="550" stroke="#5c5044" stroke-width="2"/>
<circle cx="399" cy="322" r="30" fill="#c0453f" opacity="0.9"/>
<line x1="399" y1="293" x2="399" y2="279" stroke="#5c5044" stroke-width="2"/>
<circle cx="237" cy="141" r="32" fill="#ffffff" opacity="0.9"/>
<line x1="237" y1="109" x2="237" y2="95" stroke="#5c5044" stroke-width="2"/>
<circle cx="411" cy="163" r="40" fill="#7c9e8e" opacity="0.9"/>
<line x1="411" y1="123" x2="411" y2="109" stroke="#5c5044" stroke-width="2"/>
<circle cx="521" cy="173" r="30" fill="#ffffff" opacity="0.9"/>
<line x1="521" y1="143" x2="521" y2="129" stroke="#5c5044" stroke-width="2"/>
</svg>