<svg xmlns="http://www.w3.org/2000/svg" viewBox="0 0 700 900" width="700" height="900">
<defs><linearGradient id="fam401" x1="0" y1="0" x2="0" y2="1">
    <stop offset="0%" stop-color="#f0d9b5"/><stop offset="100%" stop-color="#e8c48a"/></linearGradient></defs>
<rect width="700" height="900" fill="url(#fam401)"/><circle cx="175" cy="488" r="34" fill="#e7c9a9"/>
<rect x="133" y="518" width="84" height="130" rx="18" fill="#c0453f"/>
<circle cx="350" cy="488" r="34" fill="#e7c9a9"/>
<rect x="308" y="518" width="84" height="130" rx="18" fill="#5c4433"/>
<circle cx="525" cy="488" r="34" fill="#e7c9a9"/>
<rect x="483" y="518" width="84" height="130" rx="18" fill="#8a9b6e"/><circle cx="103.0" cy="860.4" r="1.0" fill="#ffffff" opacity="0.45"/>
<circle cx="692.3" cy="604.4" r="2.0" fill="#ffffff" opacity="0.37"/>
<circle cx="112.1" cy="44.9" r="3.0" fill="#ffffff" opacity="0.75"/>
<circle cx="476.9" cy="90.8" r="1.3" fill="#ffffff" opacity="0.59"/>
<circle cx="324.4" cy="645.1" r="3.1" fill="#ffffff" opacity="0.75"/>
<circle cx="282.0" cy="3.6" r="3.0" fill="#ffffff" opacity="0.30"/>
<circle cx="210.2" cy="569.2" r="1.9" fill="#ffffff" opacity="0.31"/>
<circle cx="667.4" cy="258.6" r="2.9" fill="#ffffff" opacity="0.54"/>
<circle cx="376.0" cy="228.2" r="1.7" fill="#ffffff" opacity="0.34"/>
<circle cx="63.8" cy="504.7" r="3.2" fill="#ffffff" opacity="0.49"/>
<circle cx="56.4" cy="722.6" r="2.8" fill="#ffffff" opacity="0.39"/>
<circle cx="686.4" cy="640.2" r="1.4" fill="#ffffff" opacity="0.32"/>
<circle cx="625.2" cy="61.7" r="1.1" fill="#ffffff" opacity="0.29"/>
<circle cx="379.7" cy="424.0" r="3.1" fill="#ffffff" opacity="0.29"/>
<circle cx="699.7" cy="810.0" r="1.5" fill="#ffffff" opacity="0.40"/>
<circle cx="360.0" cy="169.1" r="2.4" fill="#ffffff" opacity="0.80"/>
<circle cx="551.8" cy="254.7" r="2.1" fill="#ffffff" opacity="0.42"/>
<circle cx="410.2" cy="1.2" r="1.7" fill="#ffffff" opacity="0.32"/>
<circle cx="539.3" cy="376.8" r="2.9" fill="#ffffff" opacity="0.40"/>
<circle cx="23.1" cy="322.1" r="1.2" fill="#ffffff" opacity="0.37"/>
<circle cx="353.6" cy="27.5" r="3.1" fill="#ffffff" opacity="0.73"/>
<circle cx="468.3" cy="632.1" r="1.4" fill="#ffffff" opacity="0.73"/>
<circle cx="244.3" cy="70.9" r="1.1" fill="#ffffff" opacity="0.42"/>
<circle cx="516.3" cy="201.6" r="1.1" fill="#ffffff" opacity="0.53"/>
<circle cx="466.3" cy="514.0" r="2.4" fill="#ffffff" opacity="0.36"/>
<circle cx="588.2" cy="453.8" r="2.8" fill="#ffffff" opacity="0.75"/>
<circle cx="218.3" cy="255.4" r="1.4" fill="#ffffff" opacity="0.70"/>
<circle cx="64.2" cy="525.7" r="1.7" fill="#ffffff" opacity="0.75"/>
<circle cx="276.0" cy="846.0" r="1.7" fill="#ffffff" opacity="0.80"/>
<circle cx="540.6" cy="395.2" r="2.6" fill="#ffffff" opacity="0.81"/>
</svg>