<svg xmlns="http://www.w3.org/2000/svg" viewBox="0 0 700 700" width="700" height="700">
<defs><linearGradient id="fam403" x1="0" y1="0" x2="0" y2="1">
    <stop offset="0%" stop-color="#f2ddb8"/><stop offset="100%" stop-color="#e6c48e"/></linearGradient></defs>
<rect width="700" height="700" fill="url(#fam403)"/><circle cx="233" cy="364" r="34" fill="#e7c9a9"/>
<rect x="191" y="394" width="84" height="130" rx="18" fill="#8a9b6e"/>
<circle cx="467" cy="364" r="34" fill="#e7c9a9"/>
<rect x="425" y="394" width="84" height="130" rx="18" fill="#c0453f"/><circle cx="201.2" cy="497.3" r="1.1" fill="#ffffff" opacity="0.85"/>
<circle cx="80.0" cy="134.2" r="1.4" fill="#ffffff" opacity="0.54"/>
<circle cx="50.2" cy="488.6" r="1.8" fill="#ffffff" opacity="0.81"/>
<circle cx="357.5" cy="455.0" r="1.6" fill="#ffffff" opacity="0.72"/>
<circle cx="279.8" cy="639.9" r="1.7" fill="#ffffff" opacity="0.63"/>
<circle cx="154.3" cy="669.5" r="2.6" fill="#ffffff" opacity="0.51"/>
<circle cx="664.7" cy="607.9" r="1.1" fill="#ffffff" opacity="0.42"/>
<circle cx="105.7" cy="134.2" r="1.8" fill="#ffffff" opacity="0.26"/>
<circle cx="449.4" cy="445.7" r="2.4" fill="#ffffff" opacity="0.67"/>
<circle cx="379.6" cy="308.4" r="1.3" fill="#ffffff" opacity="0.65"/>
<circle cx="484.2" cy="346.3" r="1.0" fill="#ffffff" opacity="0.57"/>
<circle cx="340.0" cy="182.0" r="2.5" fill="#ffffff" opacity="0.73"/>
<circle cx="333.4" cy="297.3" r="1.5" fill="#ffffff" opacity="0.27"/>
<circle cx="52.4" cy="264.8" r="2.2" fill="#ffffff" opacity="0.29"/>
<circle cx="105.9" cy="550.5" r="2.4" fill="#ffffff" opacity="0.56"/>
<circle cx="414.3" cy="345.3" r="1.8" fill="#ffffff" opacity="0.33"/>
<circle cx="467.9" cy="408.3" r="1.6" fill="#ffffff" opacity="0.78"/>
<circle cx="354.1" cy="115.1" r="2.6" fill="#ffffff" opacity="0.40"/>
<circle cx="504.7" cy="81.7" r="2.0" fill="#ffffff" opacity="0.37"/>
<circle cx="243.5" cy="419.6" r="2.0" fill="#ffffff" opacity="0.54"/>
<circle cx="294.8" cy="528.4" r="1.0" fill="#ffffff" opacity="0.65"/>
<circle cx="70.6" cy="159.8" r="1.5" fill="#ffffff" opacity="0.55"/>
<circle cx="399.9" cy="130.7" r="1.9" fill="#ffffff" opacity="0.55"/>
<circle cx="668.9" cy="688.1" r="2.7" fill="#ffffff" opacity="0.51"/>
<circle cx="15.4" cy="547.5" r="3.0" fill="#ffffff" opacity="0.61"/>
<circle cx="228.4" cy="41.8" r="2.2" fill="#ffffff" opacity="0.27"/>
<circle cx="592.2" cy="215.9" r="1.8" fill="#ffffff" opacity="0.83"/>
<circle cx="464.0" cy="18.9" r="3.0" fill="#ffffff" opacity="0.49"/>
<circle cx="396.2" cy="522.9" r="2.9" fill="#ffffff" opacity="0.28"/>
<circle cx="205.3" cy="37.2" r="1.6" fill="#ffffff" opacity="0.69"/>
</svg>