<svg xmlns="http://www.w3.org/2000/svg" viewBox="0 0 700 500" width="700" height="500">
<defs></defs>
<rect x="0" y="0" width="350.0" height="250.0" fill="#e6b8c9"/>
<circle cx="175.0" cy="125.0" r="70.0" fill="#f6e9da"/>
<circle cx="175.0" cy="125.0" r="22.400000000000002" fill="#e6b8c9"/>
<circle cx="221" cy="115" r="5.2" fill="#ffffff" opacity="0.85"/>
<circle cx="141" cy="130" r="3.2" fill="#ffffff" opacity="0.85"/>
<circle cx="138" cy="152" r="6.1" fill="#ffffff" opacity="0.85"/>
<circle cx="142" cy="177" r="3.5" fill="#ffffff" opacity="0.85"/>
<circle cx="159" cy="101" r="3.9" fill="#ffffff" opacity="0.85"/>
<circle cx="218" cy="170" r="5.7" fill="#ffffff" opacity="0.85"/>
<rect x="350.0" y="0" width="350.0" height="250.0" fill="#a9d3da"/>
<circle cx="525.0" cy="125.0" r="70.0" fill="#f6e9da"/>
<circle cx="525.0" cy="125.0" r="22.400000000000002" fill="#a9d3da"/>
<circle cx="470" cy="106" r="6.8" fill="#ffffff" opacity="0.85"/>
<circle cx="483" cy="166" r="4.2" fill="#ffffff" opacity="0.85"/>
<circle cx="509" cy="70" r="4.5" fill="#ffffff" opacity="0.85"/>
<circle cx="495" cy="81" r="3.4" fill="#ffffff" opacity="0.85"/>
<circle cx="528" cy="90" r="4.2" fill="#ffffff" opacity="0.85"/>
<circle cx="527" cy="163" r="6.8" fill="#ffffff" opacity="0.85"/>
<rect x="0" y="250.0" width="350.0" height="250.0" fill="#e6b8c9"/>
<circle cx="175.0" cy="375.0" r="70.0" fill="#f6e9da"/>
<circle cx="175.0" cy="375.0" r="22.400000000000002" fill="#e6b8c9"/>
<circle cx="122" cy="399" r="3.5" fill="#ffffff" opacity="0.85"/>
<circle cx="175" cy="403" r="4.9" fill="#ffffff" opacity="0.85"/>
<circle cx="219" cy="361" r="5.9" fill="#ffffff" opacity="0.85"/>
<circle cx="191" cy="401" r="3.9" fill="#ffffff" opacity="0.85"/>
<circle cx="225" cy="360" r="6.7" fill="#ffffff" opacity="0.85"/>
<circle cx="181" cy="338" r="3.8" fill="#ffffff" opacity="0.85"/>
<rect x="350.0" y="250.0" width="350.0" height="250.0" fill="#a9d3da"/>
<circle cx="525.0" cy="375.0" r="70.0" fill="#f6e9da"/>
<circle cx="525.0" cy="375.0" r="22.400000000000002" fill="#a9d3da"/>
<circle cx="500" cy="354" r="4.9" fill="#ffffff" opacity="0.85"/>
<circle cx="489" cy="366" r="6.9" fill="#ffffff" opacity="0.85"/>
<circle cx="581" cy="397" r="3.2" fill="#ffffff" opacity="0.85"/>
<circle cx="567" cy="367" r="3.6" fill="#ffffff" opacity="0.85"/>
<circle cx="488" cy="338" r="4.6" fill="#ffffff" opacity="0.85"/>
<circle cx="474" cy="383" r="4.1" fill="#ffffff" opacity="0.85"/>
</svg>