<svg xmlns="http://www.w3.org/2000/svg" viewBox="0 0 700 500" width="700" height="500">
<defs></defs>
<rect x="0" y="0" width="350.0" height="250.0" fill="#8fc4cf"/>
<circle cx="175.0" cy="125.0" r="70.0" fill="#f6e9da"/>
<circle cx="175.0" cy="125.0" r="22.400000000000002" fill="#8fc4cf"/>
<circle cx="130" cy="158" r="5.0" fill="#ffffff" opacity="0.85"/>
<circle cx="140" cy="134" r="5.7" fill="#ffffff" opacity="0.85"/>
<circle cx="173" cy="187" r="4.0" fill="#ffffff" opacity="0.85"/>
<circle cx="205" cy="118" r="4.8" fill="#ffffff" opacity="0.85"/>
<circle cx="117" cy="105" r="6.4" fill="#ffffff" opacity="0.85"/>
<circle cx="157" cy="172" r="6.4" fill="#ffffff" opacity="0.85"/>
<rect x="350.0" y="0" width="350.0" height="250.0" fill="#e8a8c4"/>
<circle cx="525.0" cy="125.0" r="70.0" fill="#f6e9da"/>
<circle cx="525.0" cy="125.0" r="22.400000000000002" fill="#e8a8c4"/>
<circle cx="551" cy="175" r="6.2" fill="#ffffff" opacity="0.85"/>
<circle cx="560" cy="117" r="6.0" fill="#ffffff" opacity="0.85"/>
<circle cx="466" cy="141" r="6.1" fill="#ffffff" opacity="0.85"/>
<circle cx="586" cy="132" r="6.3" fill="#ffffff" opacity="0.85"/>
<circle cx="512" cy="185" r="3.7" fill="#ffffff" opacity="0.85"/>
<circle cx="570" cy="107" r="3.1" fill="#ffffff" opacity="0.85"/>
<rect x="0" y="250.0" width="350.0" height="250.0" fill="#8fc4cf"/>
<circle cx="175.0" cy="375.0" r="70.0" fill="#f6e9da"/>
<circle cx="175.0" cy="375.0" r="22.400000000000002" fill="#8fc4cf"/>
<circle cx="190" cy="339" r="3.3" fill="#ffffff" opacity="0.85"/>
<circle cx="191" cy="402" r="4.8" fill="#ffffff" opacity="0.85"/>
<circle cx="161" cy="434" r="4.5" fill="#ffffff" opacity="0.85"/>
<circle cx="197" cy="392" r="5.8" fill="#ffffff" opacity="0.85"/>
<circle cx="223" cy="414" r="6.0" fill="#ffffff" opacity="0.85"/>
<circle cx="131" cy="355" r="4.1" fill="#ffffff" opacity="0.85"/>
<rect x="350.0" y="250.0" width="350.0" height="250.0" fill="#e8a8c4"/>
<circle cx="525.0" cy="375.0" r="70.0" fill="#f6e9da"/>
<circle cx="525.0" cy="375.0" r="22.400000000000002" fill="#e8a8c4"/>
<circle cx="557" cy="353" r="3.6" fill="#ffffff" opacity="0.85"/>
<circle cx="474" cy="347" r="6.9" fill="#ffffff" opacity="0.85"/>
<circle cx="499" cy="400" r="4.9" fill="#ffffff" opacity="0.85"/>
<circle cx="563" cy="406" r="3.9" fill="#ffffff" opacity="0.85"/>
<circle cx="509" cy="428" r="6.8" fill="#ffffff" opacity="0.85"/>
<circle cx="497" cy="349" r="6.8" fill="#ffffff" opacity="0.85"/>
</svg>