<svg xmlns="http://www.w3.org/2000/svg" viewBox="0 0 1600 1000" width="1600" height="1000">
<defs><linearGradient id="heroSky" x1="0" y1="0" x2="0" y2="1">
<stop offset="0%" stop-color="#cfe0e8"/>
<stop offset="55%" stop-color="#e7eef2"/>
<stop offset="100%" stop-color="#f3f7f9"/>
</linearGradient></defs>
<rect width="1600" height="1000" fill="url(#heroSky)"/>
<g opacity="0.5"><polygon points="-14.625430235503952,275.7887449920857 -101.99711708236559,625.2754923795322 72.74625661135768,625.2754923795322" fill="#8fa4ac" opacity="0.85"/>
<polygon points="62.9300337568496,339.90280387738653 -6.841720597747447,618.9898212957747 132.70178811144666,618.9898212957747" fill="#8fa4ac" opacity="0.85"/>
<polygon points="151.51826436345598,274.132521508382 67.08209680668033,611.8771917354846 235.95443192023163,611.8771917354846" fill="#8fa4ac" opacity="0.85"/>
<polygon points="199.31571724269844,271.5023205741271 112.52746204670495,618.655341358101 286.1039724386919,618.655341358101" fill="#8fa4ac" opacity="0.85"/>
<polygon points="301.4002942074086,438.4865332108739 256.2949915398531,618.907743881096 346.5055968749641,618.907743881096" fill="#8fa4ac" opacity="0.85"/>
<polygon points="372.49796492999496,403.1529696569879 316.05985386647234,628.9054139110784 428.9360759935176,628.9054139110784" fill="#8fa4ac" opacity="0.85"/>
<polygon points="452.42073466809575,424.3909206131585 405.8912355164181,610.5089172198692 498.9502338197734,610.5089172198692" fill="#8fa4ac" opacity="0.85"/>
<polygon points="510.74740800264897,249.7942521980621 418.78994986372345,617.6240847537642 602.7048661415745,617.6240847537642" fill="#8fa4ac" opacity="0.85"/>
<polygon points="570.4821577034064,346.15750063495386 504.3763289242705,610.5808157514973 636.5879864825423,610.5808157514973" fill="#8fa4ac" opacity="0.85"/>
<polygon points="643.413121196376,352.33872609752257 576.5187415138473,619.916244827637 710.3075008789046,619.916244827637" fill="#8fa4ac" opacity="0.85"/>
<polygon points="716.5961052830303,388.2023124385569 660.0527782059811,614.3756207467537 773.1394323600795,614.3756207467537" fill="#8fa4ac" opacity="0.85"/>
<polygon points="798.3841386295095,372.47347118722104 738.8950578999852,610.4297941053181 857.8732193590338,610.4297941053181" fill="#8fa4ac" opacity="0.85"/>
<polygon points="886.2303917537756,331.55502272816216 813.4076756211539,622.8458872586489 959.0531078863974,622.8458872586489" fill="#8fa4ac" opacity="0.85"/>
<polygon points="932.8907960903342,248.6902481406928 838.263625481531,627.1989305759058 1027.5179666991376,627.1989305759058" fill="#8fa4ac" opacity="0.85"/>
<polygon points="1003.0174165740505,377.8906510796395 941.382657306044,624.4296881516653 1064.652175842057,624.4296881516653" fill="#8fa4ac" opacity="0.85"/>
<polygon points="1099.3567616969021,251.1540226393364 1007.5347323569292,618.4421399992283 1191.178791036875,618.4421399992283" fill="#8fa4ac" opacity="0.85"/>
<polygon points="1176.8377913673369,302.00625693584414 1098.3225130466333,616.0673702186583 1255.3530696880405,616.0673702186583" fill="#8fa4ac" opacity="0.85"/>
<polygon points="1239.8668606093788,270.42814820219473 1150.7429105677859,626.9239483685662 1328.9908106509718,626.9239483685662" fill="#8fa4ac" opacity="0.85"/>
<polygon points="1309.3022619140932,312.89006500651647 1234.8521490149656,610.6905166030268 1383.7523748132207,610.6905166030268" fill="#8fa4ac" opacity="0.85"/>
<polygon points="1371.5277807599048,278.80543047515494 1286.6575683821895,618.2862799860155 1456.39799313762,618.2862799860155" fill="#8fa4ac" opacity="0.85"/>
<polygon points="1441.4657506086169,334.30106296368206 1369.0258125392093,624.0608152413126 1513.9056886780245,624.0608152413126" fill="#8fa4ac" opacity="0.85"/>
<polygon points="1534.2521604928206,363.83862850056323 1470.5170094677387,618.7792326008913 1597.9873115179025,618.7792326008913" fill="#8fa4ac" opacity="0.85"/></g>
<g opacity="0.75"><polygon points="18.241370875569977,361.56552994266633 -74.15000347739749,731.1310273545362 110.63274522853743,731.1310273545362" fill="#5c747c" opacity="0.85"/>
<polygon points="44.9333413448184,397.61962415548055 -41.841602561654085,744.7193997813705 131.70828525129087,744.7193997813705" fill="#5c747c" opacity="0.85"/>
<polygon points="129.86613913453192,500.49159179574036 69.45931625507471,742.1188833135692 190.27296201398912,742.1188833135692" fill="#5c747c" opacity="0.85"/>
<polygon points="188.88745396101814,436.92685398269543 114.82725310541798,733.1676574050961 262.9476548166183,733.1676574050961" fill="#5c747c" opacity="0.85"/>
<polygon points="243.3806317654969,485.75387758367503 178.70404075522833,744.4602416247493 308.05722277576547,744.4602416247493" fill="#5c747c" opacity="0.85"/>
<polygon points="327.48509021029736,371.0044463299377 235.0153165556352,740.8835409485864 419.9548638649595,740.8835409485864" fill="#5c747c" opacity="0.85"/>
<polygon points="367.0249367798034,497.07033825799147 308.612899697337,730.7184865878571 425.4369738622698,730.7184865878571" fill="#5c747c" opacity="0.85"/>
<polygon points="411.86702505286354,463.3905301376111 343.62233194799796,736.3693025570735 480.1117181577291,736.3693025570735" fill="#5c747c" opacity="0.85"/>
<polygon points="487.50828918372076,382.15716381726304 397.91881629230636,740.5150553829205 577.0977620751352,740.5150553829205" fill="#5c747c" opacity="0.85"/>
<polygon points="556.2665682872138,503.2524801598032 499.46039793146065,730.4771615828156 613.0727386429669,730.4771615828156" fill="#5c747c" opacity="0.85"/>
<polygon points="608.3903325350618,532.8649983194507 556.5554628857385,740.204476916744 660.2252021843851,740.204476916744" fill="#5c747c" opacity="0.85"/>
<polygon points="696.870419650779,418.7409304672889 618.1464347834856,733.6368699364629 775.5944045180725,733.6368699364629" fill="#5c747c" opacity="0.85"/>
<polygon points="754.204399924858,405.3360495535516 669.366403853776,744.6880338378795 839.04239599594,744.6880338378795" fill="#5c747c" opacity="0.85"/>
<polygon points="816.2637459959025,413.217855982621 733.1194718042489,745.7949527492352 899.4080201875561,745.7949527492352" fill="#5c747c" opacity="0.85"/>
<polygon points="855.6899406521256,373.04270414353914 761.6411119985194,749.2380187579645 949.7387693057319,749.2380187579645" fill="#5c747c" opacity="0.85"/>
<polygon points="909.5243092090839,413.50220363437467 826.8241056264902,744.3030179647491 992.2245127916775,744.3030179647491" fill="#5c747c" opacity="0.85"/>
<polygon points="983.0716525250638,453.7291352123149 911.5538667188915,739.8002784370038 1054.5894383312361,739.8002784370038" fill="#5c747c" opacity="0.85"/>
<polygon points="1063.147129037629,466.46227726970534 993.1050759060962,746.6304897958363 1133.1891821691618,746.6304897958363" fill="#5c747c" opacity="0.85"/>
<polygon points="1101.8492758870564,391.4238280588819 1012.7067299579937,747.9940117751325 1190.991821816119,747.9940117751325" fill="#5c747c" opacity="0.85"/>
<polygon points="1167.671255826035,454.8655946997897 1094.2860023050227,748.4066087838386 1241.056509347047,748.4066087838386" fill="#5c747c" opacity="0.85"/>
<polygon points="1239.7201489241115,457.11450924750324 1170.3897211810322,734.4362202198203 1309.0505766671909,734.4362202198203" fill="#5c747c" opacity="0.85"/>
<polygon points="1285.2943820584483,413.4070660958338 1205.3158001549361,733.3213937098825 1365.2729639619604,733.3213937098825" fill="#5c747c" opacity="0.85"/>
<polygon points="1370.1637737111976,514.6000541373976 1311.7568980662068,748.2275567173609 1428.5706493561884,748.2275567173609" fill="#5c747c" opacity="0.85"/>
<polygon points="1407.7671403825939,372.65177381612045 1314.899054804786,744.1241161273521 1500.6352259604018,744.1241161273521" fill="#5c747c" opacity="0.85"/>
<polygon points="1477.0930296024096,459.4787367496254 1406.205641794982,743.0282879793358 1547.9804174098372,743.0282879793358" fill="#5c747c" opacity="0.85"/>
<polygon points="1541.979326933318,491.78750458055845 1481.387110705768,734.1563694907585 1602.5715431608678,734.1563694907585" fill="#5c747c" opacity="0.85"/></g>
<g opacity="0.95"><polygon points="-10.481414916324345,608.5532582717713 -82.69287618112193,897.3991033309616 61.730046348473245,897.3991033309616" fill="#33454b" opacity="0.85"/>
<polygon points="84.15680154384778,586.1665163631853 7.870786338445072,891.3105771847962 160.44281674925048,891.3105771847962" fill="#33454b" opacity="0.85"/>
<polygon points="140.52671966219498,547.6932638672681 53.65326555737198,895.1870802865601 227.40017376701798,895.1870802865601" fill="#33454b" opacity="0.85"/>
<polygon points="229.37323844186784,520.2763030483563 134.5909966663447,899.4052701504489 324.15548021739096,899.4052701504489" fill="#33454b" opacity="0.85"/>
<polygon points="333.45845805097554,627.5107210710163 264.6407976160088,902.7813628108833 402.2761184859423,902.7813628108833" fill="#33454b" opacity="0.85"/>
<polygon points="386.02465696094094,600.3887744858282 309.2816240466815,907.3609061428659 462.7676898752004,907.3609061428659" fill="#33454b" opacity="0.85"/>
<polygon points="480.92724841533203,575.1778582670938 398.86465560525755,903.4282295073918 562.9898412254065,903.4282295073918" fill="#33454b" opacity="0.85"/>
<polygon points="542.5612575290799,570.1759424012628 459.64974521473897,901.8219916586263 625.4727698434207,901.8219916586263" fill="#33454b" opacity="0.85"/>
<polygon points="632.0507063806285,721.1081944456289 585.500118807141,907.3105447395789 678.601293954116,907.3105447395789" fill="#33454b" opacity="0.85"/>
<polygon points="718.9099635466187,583.811471191949 637.9687673433285,907.5762560051096 799.8511597499088,907.5762560051096" fill="#33454b" opacity="0.85"/>
<polygon points="808.5651793444481,533.6795345632399 717.5102459652544,897.8992680800148 899.6201127236418,897.8992680800148" fill="#33454b" opacity="0.85"/>
<polygon points="892.0363508394091,639.7875232239383 824.8052980368711,908.7117344340904 959.2674036419471,908.7117344340904" fill="#33454b" opacity="0.85"/>
<polygon points="975.1546664135217,693.228515257838 925.2819509269779,892.7193772040134 1025.0273819000656,892.7193772040134" fill="#33454b" opacity="0.85"/>
<polygon points="1028.6794776493255,525.627209552908 935.4054707044153,898.7232373325486 1121.9534845942355,898.7232373325486" fill="#33454b" opacity="0.85"/>
<polygon points="1125.065931634672,659.9396199914801 1065.0146217133968,900.1448596765812 1185.1172415559474,900.1448596765812" fill="#33454b" opacity="0.85"/>
<polygon points="1195.434650353796,651.5193843940713 1132.889125915287,901.7014821481073 1257.9801747923052,901.7014821481073" fill="#33454b" opacity="0.85"/>
<polygon points="1283.370071718808,542.7992885631444 1193.1599831764192,903.6396427326994 1373.5801602611969,903.6396427326994" fill="#33454b" opacity="0.85"/>
<polygon points="1377.1578240480007,558.5396796180252 1289.337795728163,909.8197928973763 1464.9778523678385,909.8197928973763" fill="#33454b" opacity="0.85"/>
<polygon points="1446.8509416865006,694.5928262681114 1393.6959605879472,907.2127506623253 1500.005922785054,907.2127506623253" fill="#33454b" opacity="0.85"/>
<polygon points="1538.5853178923624,540.4429531670391 1448.3505186667505,901.3821500694864 1628.8201171179742,901.3821500694864" fill="#33454b" opacity="0.85"/></g>
<rect y="900.0" width="1600" height="100.0" fill="#eef3f6"/>
<g><circle cx="377.7" cy="103.2" r="1.9" fill="#ffffff" opacity="0.34"/>
<circle cx="106.4" cy="401.6" r="3.0" fill="#ffffff" opacity="0.73"/>
<circle cx="1224.3" cy="221.9" r="2.2" fill="#ffffff" opacity="0.42"/>
<circle cx="276.3" cy="106.2" r="1.5" fill="#ffffff" opacity="0.81"/>
<circle cx="1326.3" cy="806.7" r="2.8" fill="#ffffff" opacity="0.37"/>
<circle cx="495.8" cy="627.0" r="2.6" fill="#ffffff" opacity="0.76"/>
<circle cx="1408.1" cy="86.7" r="2.3" fill="#ffffff" opacity="0.65"/>
<circle cx="809.5" cy="177.8" r="2.0" fill="#ffffff" opacity="0.30"/>
<circle cx="1495.3" cy="865.5" r="2.2" fill="#ffffff" opacity="0.43"/>
<circle cx="1454.2" cy="572.4" r="2.9" fill="#ffffff" opacity="0.76"/>
<circle cx="813.4" cy="413.9" r="2.3" fill="#ffffff" opacity="0.51"/>
<circle cx="258.1" cy="305.1" r="2.8" fill="#ffffff" opacity="0.28"/>
<circle cx="74.1" cy="626.4" r="1.6" fill="#ffffff" opacity="0.57"/>
<circle cx="754.0" cy="342.8" r="3.2" fill="#ffffff" opacity="0.37"/>
<circle cx="660.5" cy="202.7" r="2.4" fill="#ffffff" opacity="0.42"/>
<circle cx="569.3" cy="746.9" r="1.7" fill="#ffffff" opacity="0.59"/>
<circle cx="1446.9" cy="101.0" r="1.1" fill="#ffffff" opacity="0.39"/>
<circle cx="1224.3" cy="615.4" r="1.5" fill="#ffffff" opacity="0.45"/>
<circle cx="284.1" cy="459.0" r="1.1" fill="#ffffff" opacity="0.67"/>
<circle cx="1433.5" cy="954.7" r="2.6" fill="#ffffff" opacity="0.83"/>
<circle cx="29.1" cy="289.0" r="3.1" fill="#ffffff" opacity="0.72"/>
<circle cx="656.7" cy="943.3" r="2.4" fill="#ffffff" opacity="0.74"/>
<circle cx="469.5" cy="191.4" r="2.0" fill="#ffffff" opacity="0.33"/>
<circle cx="610.6" cy="961.8" r="1.7" fill="#ffffff" opacity="0.26"/>
<circle cx="71.7" cy="169.6" r="2.7" fill="#ffffff" opacity="0.47"/>
<circle cx="464.5" cy="97.1" r="3.2" fill="#ffffff" opacity="0.50"/>
<circle cx="332.7" cy="59.3" r="1.1" fill="#ffffff" opacity="0.35"/>
<circle cx="1082.9" cy="149.6" r="1.1" fill="#ffffff" opacity="0.54"/>
<circle cx="398.5" cy="997.6" r="1.3" fill="#ffffff" opacity="0.57"/>
<circle cx="1238.1" cy="409.3" r="3.2" fill="#ffffff" opacity="0.54"/>
<circle cx="387.0" cy="410.6" r="1.1" fill="#ffffff" opacity="0.50"/>
<circle cx="397.7" cy="889.3" r="2.8" fill="#ffffff" opacity="0.55"/>
<circle cx="50.6" cy="254.4" r="1.5" fill="#ffffff" opacity="0.37"/>
<circle cx="370.3" cy="869.7" r="1.3" fill="#ffffff" opacity="0.28"/>
<circle cx="1484.9" cy="565.3" r="3.2" fill="#ffffff" opacity="0.49"/>
<circle cx="1441.5" cy="654.0" r="2.7" fill="#ffffff" opacity="0.70"/>
<circle cx="790.9" cy="92.9" r="1.5" fill="#ffffff" opacity="0.77"/>
<circle cx="1439.6" cy="924.6" r="1.7" fill="#ffffff" opacity="0.64"/>
<circle cx="1279.2" cy="642.5" r="2.8" fill="#ffffff" opacity="0.57"/>
<circle cx="1047.6" cy="686.0" r="1.6" fill="#ffffff" opacity="0.80"/>
<circle cx="1530.0" cy="74.4" r="3.1" fill="#ffffff" opacity="0.83"/>
<circle cx="1069.4" cy="44.5" r="3.0" fill="#ffffff" opacity="0.33"/>
<circle cx="1549.7" cy="667.2" r="1.1" fill="#ffffff" opacity="0.35"/>
<circle cx="1016.3" cy="569.2" r="2.6" fill="#ffffff" opacity="0.81"/>
<circle cx="349.7" cy="3.3" r="3.0" fill="#ffffff" opacity="0.26"/>
<circle cx="1402.3" cy="115.9" r="2.8" fill="#ffffff" opacity="0.72"/>
<circle cx="1404.6" cy="550.6" r="2.9" fill="#ffffff" opacity="0.37"/>
<circle cx="1074.4" cy="330.6" r="3.0" fill="#ffffff" opacity="0.71"/>
<circle cx="754.4" cy="526.4" r="1.1" fill="#ffffff" opacity="0.27"/>
<circle cx="951.2" cy="488.8" r="2.9" fill="#ffffff" opacity="0.61"/>
<circle cx="222.0" cy="362.6" r="2.7" fill="#ffffff" opacity="0.56"/>
<circle cx="16.9" cy="837.7" r="2.8" fill="#ffffff" opacity="0.30"/>
<circle cx="869.4" cy="381.2" r="2.7" fill="#ffffff" opacity="0.44"/>
<circle cx="373.9" cy="486.7" r="3.1" fill="#ffffff" opacity="0.31"/>
<circle cx="183.1" cy="621.0" r="2.9" fill="#ffffff" opacity="0.56"/>
<circle cx="694.3" cy="857.8" r="2.7" fill="#ffffff" opacity="0.29"/>
<circle cx="1410.1" cy="195.9" r="1.7" fill="#ffffff" opacity="0.75"/>
<circle cx="675.9" cy="798.3" r="1.4" fill="#ffffff" opacity="0.77"/>
<circle cx="282.2" cy="149.3" r="2.1" fill="#ffffff" opacity="0.45"/>
<circle cx="867.0" cy="904.1" r="2.6" fill="#ffffff" opacity="0.25"/>
<circle cx="498.9" cy="544.9" r="2.1" fill="#ffffff" opacity="0.68"/>
<circle cx="774.8" cy="75.7" r="1.5" fill="#ffffff" opacity="0.76"/>
<circle cx="570.9" cy="766.7" r="3.2" fill="#ffffff" opacity="0.63"/>
<circle cx="1082.8" cy="609.5" r="1.7" fill="#ffffff" opacity="0.80"/>
<circle cx="747.2" cy="911.4" r="1.7" fill="#ffffff" opacity="0.77"/>
<circle cx="1259.0" cy="613.0" r="2.0" fill="#ffffff" opacity="0.33"/>
<circle cx="1233.7" cy="362.2" r="2.5" fill="#ffffff" opacity="0.33"/>
<circle cx="132.1" cy="143.9" r="2.8" fill="#ffffff" opacity="0.36"/>
<circle cx="1443.1" cy="372.0" r="2.3" fill="#ffffff" opacity="0.46"/>
<circle cx="993.3" cy="93.5" r="1.9" fill="#ffffff" opacity="0.81"/>
<circle cx="287.5" cy="654.3" r="1.7" fill="#ffffff" opacity="0.43"/>
<circle cx="37.1" cy="20.1" r="3.1" fill="#ffffff" opacity="0.75"/>
<circle cx="1281.8" cy="807.3" r="3.1" fill="#ffffff" opacity="0.35"/>
<circle cx="934.7" cy="495.2" r="2.3" fill="#ffffff" opacity="0.81"/>
<circle cx="1216.4" cy="968.5" r="1.3" fill="#ffffff" opacity="0.64"/>
<circle cx="1080.6" cy="745.2" r="2.4" fill="#ffffff" opacity="0.75"/>
<circle cx="484.6" cy="927.8" r="1.9" fill="#ffffff" opacity="0.61"/>
<circle cx="1435.0" cy="703.6" r="1.7" fill="#ffffff" opacity="0.39"/>
<circle cx="522.6" cy="626.8" r="3.2" fill="#ffffff" opacity="0.79"/>
<circle cx="640.3" cy="400.7" r="2.8" fill="#ffffff" opacity="0.42"/>
<circle cx="658.5" cy="13.2" r="1.4" fill="#ffffff" opacity="0.57"/>
<circle cx="1109.3" cy="614.8" r="1.8" fill="#ffffff" opacity="0.82"/>
<circle cx="997.2" cy="156.1" r="1.1" fill="#ffffff" opacity="0.83"/>
<circle cx="1580.5" cy="920.0" r="2.3" fill="#ffffff" opacity="0.44"/>
<circle cx="146.1" cy="257.9" r="1.5" fill="#ffffff" opacity="0.81"/>
<circle cx="1428.1" cy="777.9" r="1.3" fill="#ffffff" opacity="0.39"/>
<circle cx="478.7" cy="947.9" r="1.4" fill="#ffffff" opacity="0.72"/>
<circle cx="1089.1" cy="547.1" r="3.1" fill="#ffffff" opacity="0.41"/>
<circle cx="839.0" cy="157.5" r="1.2" fill="#ffffff" opacity="0.27"/>
<circle cx="506.4" cy="121.8" r="1.1" fill="#ffffff" opacity="0.85"/></g>
</svg>