<svg xmlns="http://www.w3.org/2000/svg" viewBox="0 0 700 900" width="700" height="900">
<defs><linearGradient id="sky101" x1="0" y1="0" x2="0" y2="1">
    <stop offset="0%" stop-color="#c3d6de"/>
    <stop offset="100%" stop-color="#eef3f6"/>
    </linearGradient></defs>
<rect width="700" height="900" fill="url(#sky101)"/>
    <g opacity="0.55"><polygon points="13.086822613692561,420.5530281403125 -36.98751756923521,620.8503888720236 63.16116279662033,620.8503888720236" fill="#7d97a0" opacity="0.85"/>
<polygon points="49.75678866929079,380.7776059298109 -8.634633235598784,614.3432935493692 108.14821057418037,614.3432935493692" fill="#7d97a0" opacity="0.85"/>
<polygon points="86.78517658404454,413.5827093240431 37.5726288913429,610.4329000948496 135.99772427674617,610.4329000948496" fill="#7d97a0" opacity="0.85"/>
<polygon points="139.188179428372,327.64726544238465 68.51883811874214,610.3246306809041 209.85752073800185,610.3246306809041" fill="#7d97a0" opacity="0.85"/>
<polygon points="195.34139833288094,394.4214322273462 142.34281348113632,606.4157716343248 248.33998318462557,606.4157716343248" fill="#7d97a0" opacity="0.85"/>
<polygon points="258.64765427251143,284.54541512525503 177.5328082607573,609.0047991722715 339.76250028426557,609.0047991722715" fill="#7d97a0" opacity="0.85"/>
<polygon points="312.16165722403565,398.8439529510455 257.5705958293735,617.2081985296943 366.7527186186978,617.2081985296943" fill="#7d97a0" opacity="0.85"/>
<polygon points="339.5509624152197,345.7808628677296 273.45895831480976,610.1488792693694 405.64296651562967,610.1488792693694" fill="#7d97a0" opacity="0.85"/>
<polygon points="414.8367132023299,305.1227910398883 340.0784518579899,604.1558364172486 489.59497454666996,604.1558364172486" fill="#7d97a0" opacity="0.85"/>
<polygon points="433.97190908754783,361.4981639852583 372.7700523243671,606.3055910379813 495.17376585072856,606.3055910379813" fill="#7d97a0" opacity="0.85"/>
<polygon points="489.51529767494975,287.61168409901956 406.21494526909714,620.8130937224299 572.8156500808024,620.8130937224299" fill="#7d97a0" opacity="0.85"/>
<polygon points="530.6996153895634,448.53624443974957 489.1988579193812,614.5392743204782 572.2003728597456,614.5392743204782" fill="#7d97a0" opacity="0.85"/>
<polygon points="617.9044069847656,293.93387790638764 537.4230131870835,615.8594530971162 698.3858007824477,615.8594530971162" fill="#7d97a0" opacity="0.85"/>
<polygon points="659.5800943657953,362.8849119231262 597.3524656672959,611.7954267171239 721.8077230642947,611.7954267171239" fill="#7d97a0" opacity="0.85"/></g>
    <g opacity="0.85"><polygon points="-0.7501346370676671,440.5009136022102 -71.22407471218986,722.3966739026989 69.72380543805451,722.3966739026989" fill="#48606a" opacity="0.85"/>
<polygon points="51.72772808819218,400.6290029101108 -29.374088640091742,725.0362698232465 132.8295448164761,725.0362698232465" fill="#48606a" opacity="0.85"/>
<polygon points="74.00307189300405,517.3297225669846 23.561534410839258,719.0958724956438 124.44460937516884,719.0958724956438" fill="#48606a" opacity="0.85"/>
<polygon points="126.8551044450403,389.24023606332275 43.02155311544604,724.5744413816998 210.68865577463455,724.5744413816998" fill="#48606a" opacity="0.85"/>
<polygon points="173.73517521104222,489.2700749899162 117.41583125832614,714.5474508007806 230.0545191637583,714.5474508007806" fill="#48606a" opacity="0.85"/>
<polygon points="222.86172052430842,385.050470792949 140.78766731173428,713.3466836432456 304.93577373688254,713.3466836432456" fill="#48606a" opacity="0.85"/>
<polygon points="260.59098378433083,498.14175813362874 204.57890893130005,722.1900575457519 316.60305863736164,722.1900575457519" fill="#48606a" opacity="0.85"/>
<polygon points="296.41894668971855,549.7815662334624 252.98184900556845,723.5299569700628 339.85604437386866,723.5299569700628" fill="#48606a" opacity="0.85"/>
<polygon points="342.2790984505611,449.6678603056748 272.6594301439737,728.1465335320245 411.8987667571485,728.1465335320245" fill="#48606a" opacity="0.85"/>
<polygon points="397.02478616421627,399.83680617181375 315.4710160744557,726.0518865308561 478.57855625397684,726.0518865308561" fill="#48606a" opacity="0.85"/>
<polygon points="420.02966163698125,517.081027845421 368.48838636310177,723.2461289409389 471.5709369108607,723.2461289409389" fill="#48606a" opacity="0.85"/>
<polygon points="480.3826060736775,563.5804919039797 439.6702110302146,726.4300720778313 521.0950011171403,726.4300720778313" fill="#48606a" opacity="0.85"/>
<polygon points="530.9956430793318,480.18957906982286 470.9358407594918,720.4287883491829 591.0554453991718,720.4287883491829" fill="#48606a" opacity="0.85"/>
<polygon points="555.5832121638376,451.83472153584034 490.3314613398717,712.8417248317041 620.8349629878036,712.8417248317041" fill="#48606a" opacity="0.85"/>
<polygon points="619.0600569916536,382.798414666604 536.1784669495331,714.3247748350858 701.9416470337741,714.3247748350858" fill="#48606a" opacity="0.85"/>
<polygon points="646.8601790770786,461.9075120291278 580.456989699032,727.5202695413143 713.2633684551251,727.5202695413143" fill="#48606a" opacity="0.85"/></g>
    <rect y="774.0" width="700" height="126.00000000000001" fill="#eef3f6"/>
    <g><circle cx="61.1" cy="525.4" r="1.9" fill="#ffffff" opacity="0.80"/>
<circle cx="430.1" cy="470.3" r="3.1" fill="#ffffff" opacity="0.42"/>
<circle cx="594.0" cy="379.9" r="2.5" fill="#ffffff" opacity="0.83"/>
<circle cx="564.7" cy="544.2" r="2.8" fill="#ffffff" opacity="0.26"/>
<circle cx="300.0" cy="773.6" r="2.7" fill="#ffffff" opacity="0.52"/>
<circle cx="160.5" cy="312.4" r="1.9" fill="#ffffff" opacity="0.32"/>
<circle cx="655.8" cy="583.1" r="2.2" fill="#ffffff" opacity="0.36"/>
<circle cx="225.7" cy="371.3" r="1.3" fill="#ffffff" opacity="0.45"/>
<circle cx="256.3" cy="662.9" r="3.0" fill="#ffffff" opacity="0.26"/>
<circle cx="95.7" cy="769.6" r="1.0" fill="#ffffff" opacity="0.40"/>
<circle cx="394.4" cy="479.3" r="1.5" fill="#ffffff" opacity="0.70"/>
<circle cx="498.8" cy="4.9" r="2.6" fill="#ffffff" opacity="0.48"/>
<circle cx="344.8" cy="519.2" r="2.4" fill="#ffffff" opacity="0.73"/>
<circle cx="126.6" cy="171.6" r="1.5" fill="#ffffff" opacity="0.36"/>
<circle cx="552.4" cy="773.5" r="1.8" fill="#ffffff" opacity="0.66"/>
<circle cx="554.2" cy="775.5" r="2.7" fill="#ffffff" opacity="0.60"/>
<circle cx="559.2" cy="292.5" r="2.3" fill="#ffffff" opacity="0.41"/>
<circle cx="283.3" cy="341.5" r="2.1" fill="#ffffff" opacity="0.25"/>
<circle cx="306.1" cy="447.5" r="3.0" fill="#ffffff" opacity="0.68"/>
<circle cx="105.6" cy="353.4" r="2.7" fill="#ffffff" opacity="0.30"/>
<circle cx="604.9" cy="42.3" r="2.5" fill="#ffffff" opacity="0.59"/>
<circle cx="670.6" cy="332.6" r="1.7" fill="#ffffff" opacity="0.36"/>
<circle cx="194.3" cy="285.4" r="2.3" fill="#ffffff" opacity="0.42"/>
<circle cx="125.8" cy="780.0" r="1.2" fill="#ffffff" opacity="0.82"/>
<circle cx="180.9" cy="688.5" r="2.6" fill="#ffffff" opacity="0.82"/>
<circle cx="539.3" cy="8.0" r="2.7" fill="#ffffff" opacity="0.83"/>
<circle cx="551.7" cy="467.4" r="1.1" fill="#ffffff" opacity="0.26"/>
<circle cx="172.3" cy="649.7" r="1.3" fill="#ffffff" opacity="0.59"/>
<circle cx="526.0" cy="510.6" r="2.6" fill="#ffffff" opacity="0.73"/>
<circle cx="506.7" cy="5.9" r="2.5" fill="#ffffff" opacity="0.59"/>
<circle cx="574.6" cy="232.3" r="1.3" fill="#ffffff" opacity="0.28"/>
<circle cx="315.2" cy="146.3" r="2.7" fill="#ffffff" opacity="0.60"/>
<circle cx="263.2" cy="306.1" r="1.2" fill="#ffffff" opacity="0.33"/>
<circle cx="623.4" cy="152.9" r="2.2" fill="#ffffff" opacity="0.59"/>
<circle cx="526.0" cy="148.3" r="1.9" fill="#ffffff" opacity="0.33"/>
<circle cx="80.8" cy="337.1" r="2.2" fill="#ffffff" opacity="0.44"/>
<circle cx="272.8" cy="502.1" r="1.1" fill="#ffffff" opacity="0.76"/>
<circle cx="12.7" cy="362.5" r="2.6" fill="#ffffff" opacity="0.25"/>
<circle cx="103.6" cy="19.0" r="1.3" fill="#ffffff" opacity="0.60"/>
<circle cx="520.9" cy="869.5" r="2.2" fill="#ffffff" opacity="0.78"/>
<circle cx="291.5" cy="475.0" r="3.1" fill="#ffffff" opacity="0.27"/>
<circle cx="637.5" cy="270.8" r="2.0" fill="#ffffff" opacity="0.81"/>
<circle cx="305.9" cy="828.8" r="2.5" fill="#ffffff" opacity="0.34"/>
<circle cx="683.5" cy="27.3" r="2.5" fill="#ffffff" opacity="0.44"/>
<circle cx="674.3" cy="219.1" r="1.4" fill="#ffffff" opacity="0.40"/>
<circle cx="498.5" cy="358.5" r="2.3" fill="#ffffff" opacity="0.80"/>
<circle cx="499.9" cy="742.7" r="1.6" fill="#ffffff" opacity="0.30"/>
<circle cx="357.1" cy="160.8" r="2.7" fill="#ffffff" opacity="0.58"/>
<circle cx="417.7" cy="191.6" r="1.9" fill="#ffffff" opacity="0.75"/>
<circle cx="446.1" cy="296.4" r="2.2" fill="#ffffff" opacity="0.56"/></g>
</svg>