<svg xmlns="http://www.w3.org/2000/svg" viewBox="0 0 700 500" width="700" height="500">
<defs><linearGradient id="lakeSky" x1="0" y1="0" x2="0" y2="1">
<stop offset="0%" stop-color="#b9d0da"/><stop offset="100%" stop-color="#e6eef1"/></linearGradient>
<linearGradient id="lakeWater" x1="0" y1="0" x2="0" y2="1">
<stop offset="0%" stop-color="#dfe9ec"/><stop offset="100%" stop-color="#c7d8de"/></linearGradient></defs>
<rect width="700" height="275.0" fill="url(#lakeSky)"/>
<rect y="275.0" width="700" height="225.0" fill="url(#lakeWater)"/>
<polygon points="4.916067795588077,121.725172385241 -36.12860693593016,285.90387131131394 45.96074252710631,285.90387131131394" fill="#5b737b" opacity="0.85"/>
<polygon points="56.5869002399709,124.45664245931528 15.58943587147263,288.44649993330836 97.58436460846917,288.44649993330836" fill="#5b737b" opacity="0.85"/>
<polygon points="58.93798690912236,152.30486890215576 24.797420549669724,288.8671343399663 93.07855326857499,288.8671343399663" fill="#5b737b" opacity="0.85"/>
<polygon points="122.62564879214362,92.1740701180006 77.60313649837805,272.2641192930629 167.64816108590918,272.2641192930629" fill="#5b737b" opacity="0.85"/>
<polygon points="154.3183174668421,166.2179339227356 125.65399665134635,280.8752171847186 182.98263828233786,280.8752171847186" fill="#5b737b" opacity="0.85"/>
<polygon points="197.40209196156846,183.02317705038672 174.57423722184592,274.33459600927694 220.229946701291,274.33459600927694" fill="#5b737b" opacity="0.85"/>
<polygon points="224.51262797377774,103.67997185172766 179.10399367856394,285.31450903258286 269.92126226899154,285.31450903258286" fill="#5b737b" opacity="0.85"/>
<polygon points="258.60639071654373,103.06064922485757 216.1777159307636,272.77534836797804 301.03506550232385,272.77534836797804" fill="#5b737b" opacity="0.85"/>
<polygon points="315.80921192975575,167.36557398902374 290.141731115999,270.0354972440507 341.4766927435125,270.0354972440507" fill="#5b737b" opacity="0.85"/>
<polygon points="364.8561897889713,163.3639851349829 337.1197802265933,274.30962338449467 392.59259935134924,274.30962338449467" fill="#5b737b" opacity="0.85"/>
<polygon points="408.18573324192585,98.54532681125835 363.8755391060058,275.7861033549385 452.4959273778459,275.7861033549385" fill="#5b737b" opacity="0.85"/>
<polygon points="446.23689733578107,139.63426265793078 410.2563106140108,283.55660954501184 482.21748405755136,283.55660954501184" fill="#5b737b" opacity="0.85"/>
<polygon points="454.85784724801834,99.7152387133383 408.83344722081836,283.8128388221382 500.88224727521833,283.8128388221382" fill="#5b737b" opacity="0.85"/>
<polygon points="524.2181280482433,96.6016101994295 479.37458610883135,275.97577795707736 569.0616699876553,275.97577795707736" fill="#5b737b" opacity="0.85"/>
<polygon points="538.8920418333397,166.31843247783908 512.243140405096,272.91403819081364 565.5409432615834,272.91403819081364" fill="#5b737b" opacity="0.85"/>
<polygon points="565.9389218683604,161.92628987120685 535.9049443491238,282.0621999481531 595.972899387597,282.0621999481531" fill="#5b737b" opacity="0.85"/>
<polygon points="602.3575469971964,118.96451227778817 562.9091907585041,276.7579372325573 641.8059032358888,276.7579372325573" fill="#5b737b" opacity="0.85"/>
<polygon points="653.5094283752362,107.76309626789373 610.5464765090594,279.6149037326008 696.472380241413,279.6149037326008" fill="#5b737b" opacity="0.85"/>
<g opacity="0.4"><polygon points="11.73360335046652,147.50528832664625 -31.315247707526648,319.7006925586189 54.782454408459685,319.7006925586189" fill="#5b737b" opacity="0.85"/>
<polygon points="29.353748206675203,233.21119976916827 6.842455334548429,323.25637125767537 51.86504107880198,323.25637125767537" fill="#5b737b" opacity="0.85"/>
<polygon points="76.58794806035557,151.4901439316875 35.094682182908244,317.4632074414768 118.0812139378029,317.4632074414768" fill="#5b737b" opacity="0.85"/>
<polygon points="127.47226010418626,208.768501096055 98.154807962387,326.03830966325205 156.78971224598553,326.03830966325205" fill="#5b737b" opacity="0.85"/>
<polygon points="164.7485488604362,189.3654602745752 131.8983878313036,320.76610439110556 197.59870988956877,320.76610439110556" fill="#5b737b" opacity="0.85"/>
<polygon points="201.72651409599158,211.77381573355692 174.40189220188938,321.07230330996566 229.05113599009377,321.07230330996566" fill="#5b737b" opacity="0.85"/>
<polygon points="245.53829532729225,209.51520074837606 216.4002689663297,326.0673061922263 274.6763216882548,326.0673061922263" fill="#5b737b" opacity="0.85"/>
<polygon points="279.6498175062398,142.2834078768998 236.04275938633566,316.7116403565163 323.25687562614394,316.7116403565163" fill="#5b737b" opacity="0.85"/>
<polygon points="294.8364947987684,156.0673582853023 252.32942680363277,326.0956302658449 337.343562793904,326.0956302658449" fill="#5b737b" opacity="0.85"/>
<polygon points="347.80849656451375,214.56520347638474 322.96398720961525,313.9432408959787 372.65300591941224,313.9432408959787" fill="#5b737b" opacity="0.85"/>
<polygon points="394.28564297383684,209.90910389392508 364.5060539285002,329.0274600752716 424.0652320191735,329.0274600752716" fill="#5b737b" opacity="0.85"/>
<polygon points="431.320569651818,213.02064787941498 403.79871165480586,323.1080798674637 458.84242764883015,323.1080798674637" fill="#5b737b" opacity="0.85"/>
<polygon points="461.08184928299045,144.91650253982954 415.2634189053128,328.19022405054017 506.9002796606681,328.19022405054017" fill="#5b737b" opacity="0.85"/>
<polygon points="506.1416020056587,169.50102598104561 467.5273067372213,323.9582070547951 544.755897274096,323.9582070547951" fill="#5b737b" opacity="0.85"/>
<polygon points="556.6646413184939,122.93093905627882 509.7552661806034,310.56843960784056 603.5740164563842,310.56843960784056" fill="#5b737b" opacity="0.85"/>
<polygon points="577.788390192855,165.91176408662446 540.2447091841717,316.0864881213575 615.3320712015383,316.0864881213575" fill="#5b737b" opacity="0.85"/>
<polygon points="625.7884918344107,228.63283055690385 601.0463052619788,327.6015768466318 650.5306784068426,327.6015768466318" fill="#5b737b" opacity="0.85"/>
<polygon points="662.1216384832106,221.57238412303366 636.7010286573222,323.25482342658705 687.542248309099,323.25482342658705" fill="#5b737b" opacity="0.85"/></g>
<circle cx="226.7" cy="75.4" r="2.4" fill="#ffffff" opacity="0.29"/>
<circle cx="375.1" cy="182.8" r="1.1" fill="#ffffff" opacity="0.55"/>
<circle cx="26.2" cy="216.8" r="1.2" fill="#ffffff" opacity="0.30"/>
<circle cx="297.2" cy="413.4" r="1.3" fill="#ffffff" opacity="0.38"/>
<circle cx="439.2" cy="473.9" r="2.3" fill="#ffffff" opacity="0.49"/>
<circle cx="683.4" cy="23.3" r="2.9" fill="#ffffff" opacity="0.42"/>
<circle cx="101.0" cy="58.9" r="1.7" fill="#ffffff" opacity="0.74"/>
<circle cx="126.5" cy="290.8" r="2.4" fill="#ffffff" opacity="0.47"/>
<circle cx="383.4" cy="31.4" r="1.1" fill="#ffffff" opacity="0.37"/>
<circle cx="476.3" cy="213.8" r="1.7" fill="#ffffff" opacity="0.60"/>
<circle cx="317.2" cy="149.9" r="2.7" fill="#ffffff" opacity="0.67"/>
<circle cx="170.9" cy="287.2" r="2.2" fill="#ffffff" opacity="0.78"/>
<circle cx="510.6" cy="144.0" r="3.2" fill="#ffffff" opacity="0.32"/>
<circle cx="292.7" cy="378.6" r="1.3" fill="#ffffff" opacity="0.54"/>
<circle cx="27.4" cy="334.1" r="2.7" fill="#ffffff" opacity="0.59"/>
<circle cx="612.8" cy="156.9" r="2.5" fill="#ffffff" opacity="0.61"/>
<circle cx="405.9" cy="228.1" r="2.8" fill="#ffffff" opacity="0.82"/>
<circle cx="331.9" cy="332.1" r="1.1" fill="#ffffff" opacity="0.67"/>
<circle cx="453.0" cy="496.5" r="2.8" fill="#ffffff" opacity="0.42"/>
<circle cx="270.1" cy="334.3" r="1.0" fill="#ffffff" opacity="0.53"/>
<circle cx="117.6" cy="58.5" r="1.1" fill="#ffffff" opacity="0.71"/>
<circle cx="90.5" cy="123.8" r="1.9" fill="#ffffff" opacity="0.77"/>
<circle cx="56.4" cy="224.6" r="2.2" fill="#ffffff" opacity="0.78"/>
<circle cx="573.5" cy="432.0" r="1.6" fill="#ffffff" opacity="0.50"/>
<circle cx="251.1" cy="442.1" r="3.1" fill="#ffffff" opacity="0.34"/>
<circle cx="123.4" cy="116.0" r="1.5" fill="#ffffff" opacity="0.54"/>
<circle cx="412.4" cy="131.4" r="1.0" fill="#ffffff" opacity="0.50"/>
<circle cx="258.5" cy="283.2" r="3.1" fill="#ffffff" opacity="0.66"/>
<circle cx="360.8" cy="308.8" r="2.5" fill="#ffffff" opacity="0.28"/>
<circle cx="629.7" cy="390.0" r="2.9" fill="#ffffff" opacity="0.73"/>
<circle cx="274.7" cy="199.5" r="1.2" fill="#ffffff" opacity="0.63"/>
<circle cx="43.6" cy="33.7" r="1.5" fill="#ffffff" opacity="0.35"/>
<circle cx="238.0" cy="26.3" r="1.0" fill="#ffffff" opacity="0.34"/>
<circle cx="71.0" cy="181.8" r="1.1" fill="#ffffff" opacity="0.77"/>
<circle cx="429.8" cy="74.3" r="1.6" fill="#ffffff" opacity="0.46"/>
<circle cx="254.9" cy="61.4" r="2.9" fill="#ffffff" opacity="0.85"/>
<circle cx="326.2" cy="241.9" r="1.2" fill="#ffffff" opacity="0.31"/>
<circle cx="239.8" cy="132.4" r="2.8" fill="#ffffff" opacity="0.35"/>
<circle cx="16.2" cy="475.5" r="2.2" fill="#ffffff" opacity="0.34"/>
<circle cx="380.2" cy="13.5" r="2.2" fill="#ffffff" opacity="0.84"/>
</svg>