<svg xmlns="http://www.w3.org/2000/svg" viewBox="0 0 700 500" width="700" height="500">
<defs><linearGradient id="sky103" x1="0" y1="0" x2="0" y2="1">
    <stop offset="0%" stop-color="#cddfe6"/>
    <stop offset="100%" stop-color="#f0f5f7"/>
    </linearGradient></defs>
<rect width="700" height="500" fill="url(#sky103)"/>
    <g opacity="0.55"><polygon points="-18.777787192505038,167.67971638070878 -62.96823813872779,344.4415201655998 25.412663753717716,344.4415201655998" fill="#7d97a0" opacity="0.85"/>
<polygon points="30.714956068509895,189.77989773410786 -5.533452664025514,334.7735326642495 66.9633648010453,334.7735326642495" fill="#7d97a0" opacity="0.85"/>
<polygon points="115.27041257356197,160.67810115017602 71.43168691208616,336.03300379607924 159.1091382350378,336.03300379607924" fill="#7d97a0" opacity="0.85"/>
<polygon points="153.94083747208884,196.13673680159172 119.06765865622691,335.62945206503946 188.81401628795078,335.62945206503946" fill="#7d97a0" opacity="0.85"/>
<polygon points="197.32347230278828,209.87461602918125 164.95489812424256,339.34891274336405 229.692046481334,339.34891274336405" fill="#7d97a0" opacity="0.85"/>
<polygon points="268.0825076438314,167.69059825816277 227.31369559607293,330.7658464491965 308.8513196915898,330.7658464491965" fill="#7d97a0" opacity="0.85"/>
<polygon points="294.09526114865025,158.4197311300278 247.3958626128762,345.21732527312406 340.79465968442435,345.21732527312406" fill="#7d97a0" opacity="0.85"/>
<polygon points="354.25456889502175,189.0339630831784 315.59166873515176,343.68556372265846 392.91746905489174,343.68556372265846" fill="#7d97a0" opacity="0.85"/>
<polygon points="386.57416888369,204.88816907096313 353.90765670198056,335.55421779780096 419.24068106539943,335.55421779780096" fill="#7d97a0" opacity="0.85"/>
<polygon points="437.67792379656885,171.78395634369951 397.9460486943396,330.71145675261647 477.4097988987981,330.71145675261647" fill="#7d97a0" opacity="0.85"/>
<polygon points="487.157287309827,186.88185869132712 446.90763344703316,347.88047414250235 527.4069411726208,347.88047414250235" fill="#7d97a0" opacity="0.85"/>
<polygon points="542.1181054502526,171.36922091986202 498.2973147243007,346.65238382366977 585.9388961762046,346.65238382366977" fill="#7d97a0" opacity="0.85"/>
<polygon points="586.1439624514435,151.86931290506217 540.7725398996886,333.3550031120819 631.5153850031984,333.3550031120819" fill="#7d97a0" opacity="0.85"/>
<polygon points="648.8675981147514,233.543683429836 624.2785468613214,331.8998884435561 673.4566493681815,331.8998884435561" fill="#7d97a0" opacity="0.85"/></g>
    <g opacity="0.85"><polygon points="-10.362579952860216,303.5297990264311 -35.30976065173751,403.31852182194024 14.584600746017081,403.31852182194024" fill="#48606a" opacity="0.85"/>
<polygon points="33.48896522113323,240.64428288937273 -4.617660724681471,393.0707866726315 71.59559116694793,393.0707866726315" fill="#48606a" opacity="0.85"/>
<polygon points="106.73272953350414,238.40954914620374 67.36428490500268,395.8833276602096 146.1011741620056,395.8833276602096" fill="#48606a" opacity="0.85"/>
<polygon points="113.79593954607958,234.2297495076183 70.3647428145153,407.95453643387543 157.22713627764387,407.95453643387543" fill="#48606a" opacity="0.85"/>
<polygon points="168.5106276589507,308.9229421224025 143.3529344384157,409.55371500454254 193.66832087948572,409.55371500454254" fill="#48606a" opacity="0.85"/>
<polygon points="234.52622288359282,255.9626431201277 200.46448746306586,392.20958480223555 268.5879583041198,392.20958480223555" fill="#48606a" opacity="0.85"/>
<polygon points="272.56449875947726,208.95357761483245 225.79570832674895,396.0287393457457 319.3332891922056,396.0287393457457" fill="#48606a" opacity="0.85"/>
<polygon points="301.03338555281357,228.09972893489504 256.808841835317,404.99790380488116 345.2579292703101,404.99790380488116" fill="#48606a" opacity="0.85"/>
<polygon points="366.6739402518554,242.42772522260728 328.6263492771389,394.61808912147325 404.7215312265719,394.61808912147325" fill="#48606a" opacity="0.85"/>
<polygon points="411.7816721297549,236.30570943718865 369.0323967836887,407.3028108214536 454.5309474758211,407.3028108214536" fill="#48606a" opacity="0.85"/>
<polygon points="430.88207917307307,289.16323915280486 400.80064962918425,409.48895732836024 460.9635087169619,409.48895732836024" fill="#48606a" opacity="0.85"/>
<polygon points="498.2556476885258,291.6720987878725 473.27714071914966,391.58612666537704 523.234154657902,391.58612666537704" fill="#48606a" opacity="0.85"/>
<polygon points="510.33075379608863,238.88400005009777 471.2974165147598,395.0173491754131 549.3640910774175,395.0173491754131" fill="#48606a" opacity="0.85"/>
<polygon points="555.4520436403534,267.33155775779665 519.9699363532709,409.2599869061266 590.9341509274359,409.2599869061266" fill="#48606a" opacity="0.85"/>
<polygon points="611.6791231462672,294.5599939608806 587.1211938970149,392.79171095788973 636.2370523955195,392.79171095788973" fill="#48606a" opacity="0.85"/>
<polygon points="648.2176550753547,270.84619255775704 617.3822349471449,394.1878730705967 679.0530752035646,394.1878730705967" fill="#48606a" opacity="0.85"/></g>
    <rect y="430.0" width="700" height="70.0" fill="#f0f5f7"/>
    <g><circle cx="36.7" cy="43.6" r="1.9" fill="#ffffff" opacity="0.31"/>
<circle cx="630.8" cy="19.1" r="2.2" fill="#ffffff" opacity="0.45"/>
<circle cx="596.5" cy="79.8" r="1.7" fill="#ffffff" opacity="0.45"/>
<circle cx="171.6" cy="0.8" r="2.0" fill="#ffffff" opacity="0.30"/>
<circle cx="418.3" cy="34.9" r="1.7" fill="#ffffff" opacity="0.52"/>
<circle cx="633.8" cy="46.4" r="1.3" fill="#ffffff" opacity="0.72"/>
<circle cx="14.9" cy="455.6" r="2.3" fill="#ffffff" opacity="0.41"/>
<circle cx="586.5" cy="384.4" r="1.8" fill="#ffffff" opacity="0.73"/>
<circle cx="144.8" cy="304.5" r="2.2" fill="#ffffff" opacity="0.74"/>
<circle cx="220.7" cy="199.1" r="2.7" fill="#ffffff" opacity="0.56"/>
<circle cx="479.4" cy="319.2" r="2.5" fill="#ffffff" opacity="0.78"/>
<circle cx="340.3" cy="334.2" r="1.8" fill="#ffffff" opacity="0.27"/>
<circle cx="527.9" cy="90.7" r="2.8" fill="#ffffff" opacity="0.80"/>
<circle cx="460.7" cy="85.1" r="1.7" fill="#ffffff" opacity="0.48"/>
<circle cx="51.3" cy="228.4" r="2.3" fill="#ffffff" opacity="0.45"/>
<circle cx="132.3" cy="44.1" r="2.4" fill="#ffffff" opacity="0.26"/>
<circle cx="246.3" cy="114.6" r="2.2" fill="#ffffff" opacity="0.68"/>
<circle cx="636.4" cy="319.4" r="3.2" fill="#ffffff" opacity="0.83"/>
<circle cx="441.0" cy="116.7" r="2.1" fill="#ffffff" opacity="0.36"/>
<circle cx="694.4" cy="222.2" r="2.7" fill="#ffffff" opacity="0.28"/>
<circle cx="94.3" cy="96.6" r="1.6" fill="#ffffff" opacity="0.46"/>
<circle cx="190.4" cy="217.1" r="1.9" fill="#ffffff" opacity="0.32"/>
<circle cx="43.8" cy="177.5" r="1.2" fill="#ffffff" opacity="0.51"/>
<circle cx="6.0" cy="267.9" r="1.2" fill="#ffffff" opacity="0.67"/>
<circle cx="282.9" cy="492.7" r="1.6" fill="#ffffff" opacity="0.53"/>
<circle cx="525.6" cy="167.4" r="1.8" fill="#ffffff" opacity="0.63"/>
<circle cx="678.8" cy="441.9" r="1.9" fill="#ffffff" opacity="0.68"/>
<circle cx="475.3" cy="186.1" r="1.5" fill="#ffffff" opacity="0.30"/>
<circle cx="615.2" cy="28.6" r="2.1" fill="#ffffff" opacity="0.57"/>
<circle cx="102.3" cy="328.0" r="3.0" fill="#ffffff" opacity="0.72"/>
<circle cx="272.5" cy="63.2" r="3.1" fill="#ffffff" opacity="0.56"/>
<circle cx="440.7" cy="401.1" r="1.8" fill="#ffffff" opacity="0.29"/>
<circle cx="95.2" cy="334.2" r="1.8" fill="#ffffff" opacity="0.77"/>
<circle cx="518.1" cy="490.2" r="2.5" fill="#ffffff" opacity="0.43"/>
<circle cx="553.8" cy="14.1" r="2.1" fill="#ffffff" opacity="0.77"/>
<circle cx="360.3" cy="68.7" r="2.1" fill="#ffffff" opacity="0.58"/>
<circle cx="258.3" cy="446.7" r="1.7" fill="#ffffff" opacity="0.41"/>
<circle cx="354.4" cy="101.6" r="1.7" fill="#ffffff" opacity="0.49"/>
<circle cx="656.8" cy="40.2" r="1.4" fill="#ffffff" opacity="0.37"/>
<circle cx="696.7" cy="445.4" r="1.4" fill="#ffffff" opacity="0.59"/>
<circle cx="59.6" cy="158.5" r="1.8" fill="#ffffff" opacity="0.57"/>
<circle cx="650.6" cy="404.5" r="2.2" fill="#ffffff" opacity="0.72"/>
<circle cx="338.8" cy="365.3" r="2.7" fill="#ffffff" opacity="0.40"/>
<circle cx="582.9" cy="289.0" r="2.1" fill="#ffffff" opacity="0.49"/>
<circle cx="156.9" cy="250.6" r="1.3" fill="#ffffff" opacity="0.63"/>
<circle cx="628.8" cy="395.3" r="2.3" fill="#ffffff" opacity="0.55"/>
<circle cx="487.0" cy="61.2" r="1.1" fill="#ffffff" opacity="0.77"/>
<circle cx="253.3" cy="334.5" r="1.9" fill="#ffffff" opacity="0.47"/>
<circle cx="539.2" cy="171.5" r="2.7" fill="#ffffff" opacity="0.74"/>
<circle cx="126.5" cy="488.6" r="1.1" fill="#ffffff" opacity="0.50"/></g>
</svg>