<svg xmlns="http://www.w3.org/2000/svg" viewBox="0 0 700 700" width="700" height="700">
<defs><linearGradient id="sky104" x1="0" y1="0" x2="0" y2="1">
    <stop offset="0%" stop-color="#aac3cf"/>
    <stop offset="100%" stop-color="#e3ecf0"/>
    </linearGradient></defs>
<rect width="700" height="700" fill="url(#sky104)"/>
    <g opacity="0.55"><polygon points="-10.362579952860216,339.6143099082274 -45.28863293128843,479.3185218219403 24.563473025568,479.3185218219403" fill="#7d97a0" opacity="0.85"/>
<polygon points="39.73896522113323,255.67368137606928 -13.610311103007348,469.0707866726316 93.0882415452738,469.0707866726316" fill="#7d97a0" opacity="0.85"/>
<polygon points="119.23272953350414,251.42003774060146 64.11690705360209,471.88332766020966 174.3485520134062,471.88332766020966" fill="#7d97a0" opacity="0.85"/>
<polygon points="132.54593954607958,240.7398347371155 71.74226412188958,483.9545364338755 193.34961497026958,483.9545364338755" fill="#7d97a0" opacity="0.85"/>
<polygon points="193.5106276589507,344.67063296954655 158.2898571502017,485.5537150045426 228.73139816769972,485.5537150045426" fill="#7d97a0" opacity="0.85"/>
<polygon points="265.7762228835928,277.4638664472846 218.08979329485507,468.2095848022356 313.46265247233055,468.2095848022356" fill="#7d97a0" opacity="0.85"/>
<polygon points="310.06449875947726,210.12351292246728 244.58819215365764,472.02873934574575 375.5408053652969,472.02873934574575" fill="#7d97a0" opacity="0.85"/>
<polygon points="344.78338555281357,233.34045898690061 282.8690243483184,480.9979038048812 406.6977467573087,480.9979038048812" fill="#7d97a0" opacity="0.85"/>
<polygon points="416.6739402518554,257.5515796630609 363.4073128872523,470.6180891214733 469.9405676164585,470.6180891214733" fill="#7d97a0" opacity="0.85"/>
<polygon points="468.0316721297549,243.90686888348267 408.18268664526215,483.3028108214536 527.8806576142476,483.3028108214536" fill="#7d97a0" opacity="0.85"/>
<polygon points="493.38207917307307,317.0329518825828 451.2680778116287,485.4889573283603 535.4960805345174,485.4889573283603" fill="#7d97a0" opacity="0.85"/>
<polygon points="567.0056476885258,327.70648763687075 532.0357379313991,467.5861266653771 601.9755574456524,467.5861266653771" fill="#7d97a0" opacity="0.85"/>
<polygon points="585.3307537960886,252.4306603999717 530.6840816022283,471.01734917541313 639.977425989949,471.01734917541313" fill="#7d97a0" opacity="0.85"/>
<polygon points="636.7020436403534,286.5601860984648 587.0270934384379,485.25998690612664 686.3769938422689,485.25998690612664" fill="#7d97a0" opacity="0.85"/></g>
    <g opacity="0.85"><polygon points="15.836095000280665,398.696673169084 -22.556629872907777,552.2675726618378 54.22881987346911,552.2675726618378" fill="#48606a" opacity="0.85"/>
<polygon points="28.239626388107663,335.55750385505587 -29.66101250923865,567.1600594444411 86.14026528545398,567.1600594444411" fill="#48606a" opacity="0.85"/>
<polygon points="107.1577955162594,341.8160741724205 51.91178465325655,562.8001176244319 162.40380637926225,562.8001176244319" fill="#48606a" opacity="0.85"/>
<polygon points="138.74269018751926,367.34378452878826 90.34365493368632,560.93992554412 187.1417254413522,560.93992554412" fill="#48606a" opacity="0.85"/>
<polygon points="160.74215625346972,435.52136606335057 127.78041675089787,567.368324073638 193.70389575604156,567.368324073638" fill="#48606a" opacity="0.85"/>
<polygon points="230.8186626949411,303.7273696229047 165.54963616937806,564.8034757251569 296.08768922050416,564.8034757251569" fill="#48606a" opacity="0.85"/>
<polygon points="265.99058635356255,418.26333157174184 228.71159316117934,567.3793043412747 303.26957954594576,567.3793043412747" fill="#48606a" opacity="0.85"/>
<polygon points="307.4136448555459,318.12817750502234 245.54126558732565,565.6176945779033 369.28602412376614,565.6176945779033" fill="#48606a" opacity="0.85"/>
<polygon points="361.44194422645523,351.5026304848065 307.82552623701275,565.9683024425765 415.0583622158977,565.9683024425765" fill="#48606a" opacity="0.85"/>
<polygon points="390.89772463292326,334.58249829925114 334.4180565068558,560.5011708035211 447.3773927589907,560.5011708035211" fill="#48606a" opacity="0.85"/>
<polygon points="441.8746269485916,305.45416396146015 376.2928433749455,567.7812982560444 507.45641052223766,567.7812982560444" fill="#48606a" opacity="0.85"/>
<polygon points="489.84826781657506,344.7871578652132 437.3799258311989,554.6605258067179 542.3166098019512,554.6605258067179" fill="#48606a" opacity="0.85"/>
<polygon points="538.5882073610131,373.9227786870887 492.7204490642527,557.3938118741305 584.4559656577736,557.3938118741305" fill="#48606a" opacity="0.85"/>
<polygon points="583.2204789495148,371.12342152491186 535.0113857696092,563.9597942445342 631.4295721294204,563.9597942445342" fill="#48606a" opacity="0.85"/>
<polygon points="599.9033370236056,337.54456972997195 542.024214879404,569.0610583067781 657.7824591678071,569.0610583067781" fill="#48606a" opacity="0.85"/>
<polygon points="660.789834380914,316.9977776831005 599.6760232607652,561.4530221636959 721.9036455010629,561.4530221636959" fill="#48606a" opacity="0.85"/></g>
    <rect y="602.0" width="700" height="98.00000000000001" fill="#e3ecf0"/>
    <g><circle cx="672.5" cy="383.8" r="1.4" fill="#ffffff" opacity="0.83"/>
<circle cx="291.3" cy="551.3" r="1.1" fill="#ffffff" opacity="0.35"/>
<circle cx="677.6" cy="570.9" r="1.0" fill="#ffffff" opacity="0.53"/>
<circle cx="297.9" cy="160.4" r="1.2" fill="#ffffff" opacity="0.44"/>
<circle cx="99.3" cy="133.9" r="2.9" fill="#ffffff" opacity="0.46"/>
<circle cx="206.7" cy="279.1" r="1.2" fill="#ffffff" opacity="0.79"/>
<circle cx="359.1" cy="463.5" r="3.2" fill="#ffffff" opacity="0.32"/>
<circle cx="397.9" cy="335.4" r="2.7" fill="#ffffff" opacity="0.61"/>
<circle cx="311.7" cy="92.4" r="2.2" fill="#ffffff" opacity="0.72"/>
<circle cx="663.7" cy="318.6" r="2.1" fill="#ffffff" opacity="0.73"/>
<circle cx="313.3" cy="283.1" r="2.6" fill="#ffffff" opacity="0.78"/>
<circle cx="539.0" cy="651.4" r="1.4" fill="#ffffff" opacity="0.57"/>
<circle cx="43.1" cy="656.6" r="1.5" fill="#ffffff" opacity="0.56"/>
<circle cx="485.2" cy="328.9" r="2.0" fill="#ffffff" opacity="0.53"/>
<circle cx="405.6" cy="448.5" r="2.6" fill="#ffffff" opacity="0.53"/>
<circle cx="281.2" cy="111.1" r="1.0" fill="#ffffff" opacity="0.44"/>
<circle cx="667.7" cy="330.5" r="1.3" fill="#ffffff" opacity="0.53"/>
<circle cx="513.9" cy="580.2" r="1.8" fill="#ffffff" opacity="0.61"/>
<circle cx="38.7" cy="586.4" r="1.9" fill="#ffffff" opacity="0.32"/>
<circle cx="143.7" cy="570.4" r="3.0" fill="#ffffff" opacity="0.37"/>
<circle cx="676.9" cy="157.2" r="1.2" fill="#ffffff" opacity="0.27"/>
<circle cx="114.0" cy="502.6" r="2.3" fill="#ffffff" opacity="0.80"/>
<circle cx="145.3" cy="118.3" r="2.9" fill="#ffffff" opacity="0.54"/>
<circle cx="330.1" cy="532.4" r="1.0" fill="#ffffff" opacity="0.28"/>
<circle cx="61.7" cy="249.3" r="1.2" fill="#ffffff" opacity="0.57"/>
<circle cx="293.3" cy="252.5" r="1.6" fill="#ffffff" opacity="0.51"/>
<circle cx="533.3" cy="668.5" r="3.2" fill="#ffffff" opacity="0.26"/>
<circle cx="440.4" cy="517.3" r="3.0" fill="#ffffff" opacity="0.58"/>
<circle cx="166.2" cy="309.0" r="3.1" fill="#ffffff" opacity="0.33"/>
<circle cx="356.4" cy="258.5" r="1.7" fill="#ffffff" opacity="0.30"/>
<circle cx="316.7" cy="409.4" r="2.8" fill="#ffffff" opacity="0.83"/>
<circle cx="220.3" cy="201.2" r="1.3" fill="#ffffff" opacity="0.56"/>
<circle cx="548.5" cy="459.5" r="2.0" fill="#ffffff" opacity="0.82"/>
<circle cx="667.2" cy="631.8" r="1.7" fill="#ffffff" opacity="0.67"/>
<circle cx="31.3" cy="440.4" r="1.6" fill="#ffffff" opacity="0.56"/>
<circle cx="697.7" cy="205.6" r="1.6" fill="#ffffff" opacity="0.65"/>
<circle cx="89.3" cy="190.8" r="2.8" fill="#ffffff" opacity="0.32"/>
<circle cx="540.8" cy="294.1" r="1.9" fill="#ffffff" opacity="0.79"/>
<circle cx="295.1" cy="46.2" r="2.3" fill="#ffffff" opacity="0.51"/>
<circle cx="558.2" cy="369.1" r="2.7" fill="#ffffff" opacity="0.69"/>
<circle cx="456.8" cy="581.6" r="2.5" fill="#ffffff" opacity="0.31"/>
<circle cx="109.2" cy="62.7" r="2.1" fill="#ffffff" opacity="0.82"/>
<circle cx="164.8" cy="65.3" r="1.4" fill="#ffffff" opacity="0.62"/>
<circle cx="607.5" cy="607.5" r="1.2" fill="#ffffff" opacity="0.34"/>
<circle cx="326.9" cy="302.7" r="3.0" fill="#ffffff" opacity="0.48"/>
<circle cx="592.6" cy="623.9" r="2.9" fill="#ffffff" opacity="0.26"/>
<circle cx="462.8" cy="260.9" r="3.0" fill="#ffffff" opacity="0.80"/>
<circle cx="58.9" cy="80.6" r="2.1" fill="#ffffff" opacity="0.57"/>
<circle cx="104.0" cy="21.9" r="1.3" fill="#ffffff" opacity="0.43"/>
<circle cx="59.2" cy="295.9" r="1.8" fill="#ffffff" opacity="0.48"/></g>
</svg>