<svg xmlns="http://www.w3.org/2000/svg" viewBox="0 0 700 500" width="700" height="500">
<defs><linearGradient id="sky102" x1="0" y1="0" x2="0" y2="1">
    <stop offset="0%" stop-color="#b7cdd7"/>
    <stop offset="100%" stop-color="#e9f0f3"/>
    </linearGradient></defs>
<rect width="700" height="500" fill="url(#sky102)"/>
    <g opacity="0.55"><polygon points="-0.7501346370676671,185.78791818020517 -39.902323567691106,342.3966739026989 38.40205429355577,342.3966739026989" fill="#7d97a0" opacity="0.85"/>
<polygon points="57.97772808819218,164.81001042706006 12.921163239145564,345.0362698232465 103.0342929372388,345.0362698232465" fill="#7d97a0" opacity="0.85"/>
<polygon points="86.50307189300405,227.00356697972202 58.47999551402361,339.0958724956438 114.52614827198448,339.0958724956438" fill="#7d97a0" opacity="0.85"/>
<polygon points="145.6051044450403,158.27766064926814 99.03090926193238,344.57444138169984 192.17929962814821,344.57444138169984" fill="#7d97a0" opacity="0.85"/>
<polygon points="198.73517521104222,209.39335312807813 167.44665079286662,334.54745080078055 230.02369962921782,334.54745080078055" fill="#7d97a0" opacity="0.85"/>
<polygon points="254.11172052430842,150.9598987264141 208.51502429510057,333.3466836432455 299.7084167535163,333.3466836432455" fill="#7d97a0" opacity="0.85"/>
<polygon points="298.09098378433083,217.71878009457242 266.97316442153596,342.1900575457519 329.2088031471257,342.1900575457519" fill="#7d97a0" opacity="0.85"/>
<polygon points="340.16894668971855,247.003073227507 316.0372257540796,343.5299569700628 364.3006676253575,343.5299569700628" fill="#7d97a0" opacity="0.85"/>
<polygon points="392.2790984505611,193.43615951738573 353.6015049469014,348.1465335320244 430.9566919542208,348.1465335320244" fill="#7d97a0" opacity="0.85"/>
<polygon points="453.27478616421627,164.82128633138808 407.9671361143493,346.05188653085605 498.58243621408326,346.05188653085605" fill="#7d97a0" opacity="0.85"/>
<polygon points="482.52966163698125,228.7099616656511 453.89561981815933,343.24612894093883 511.16370345580316,343.24612894093883" fill="#7d97a0" opacity="0.85"/>
<polygon points="549.1326060736775,255.9580830923582 526.5146088273092,346.43007207783126 571.7506033200458,346.43007207783126" fill="#7d97a0" opacity="0.85"/>
<polygon points="605.9956430793318,206.9625609717606 572.6290862349762,340.42878834918287 639.3621999236874,340.42878834918287" fill="#7d97a0" opacity="0.85"/>
<polygon points="636.8332121638376,187.8378341117798 600.5822394838566,332.84172483170414 673.0841848438187,332.84172483170414" fill="#7d97a0" opacity="0.85"/></g>
    <g opacity="0.85"><polygon points="-18.777787192505038,227.67971638070878 -62.96823813872779,404.4415201655998 25.412663753717716,404.4415201655998" fill="#48606a" opacity="0.85"/>
<polygon points="24.464956068509895,249.77989773410786 -11.783452664025514,394.7735326642495 60.7133648010453,394.7735326642495" fill="#48606a" opacity="0.85"/>
<polygon points="102.77041257356197,220.67810115017602 58.931686912086164,396.03300379607924 146.6091382350378,396.03300379607924" fill="#48606a" opacity="0.85"/>
<polygon points="135.19083747208884,256.1367368015917 100.31765865622691,395.62945206503946 170.06401628795078,395.62945206503946" fill="#48606a" opacity="0.85"/>
<polygon points="172.32347230278828,269.87461602918125 139.95489812424256,399.34891274336405 204.692046481334,399.34891274336405" fill="#48606a" opacity="0.85"/>
<polygon points="236.8325076438314,227.69059825816277 196.063695596073,390.7658464491965 277.6013196915898,390.7658464491965" fill="#48606a" opacity="0.85"/>
<polygon points="256.59526114865025,218.4197311300278 209.8958626128762,405.21732527312406 303.29465968442435,405.21732527312406" fill="#48606a" opacity="0.85"/>
<polygon points="310.50456889502175,249.0339630831784 271.84166873515176,403.68556372265846 349.16746905489174,403.68556372265846" fill="#48606a" opacity="0.85"/>
<polygon points="336.57416888369,264.88816907096316 303.90765670198056,395.55421779780096 369.24068106539943,395.55421779780096" fill="#48606a" opacity="0.85"/>
<polygon points="381.42792379656885,231.78395634369951 341.6960486943396,390.71145675261647 421.1597988987981,390.71145675261647" fill="#48606a" opacity="0.85"/>
<polygon points="424.657287309827,246.88185869132712 384.40763344703316,407.88047414250235 464.9069411726208,407.88047414250235" fill="#48606a" opacity="0.85"/>
<polygon points="473.3681054502526,231.36922091986202 429.54731472430063,406.65238382366977 517.1888961762045,406.65238382366977" fill="#48606a" opacity="0.85"/>
<polygon points="511.1439624514435,211.86931290506217 465.7725398996886,393.3550031120819 556.5153850031984,393.3550031120819" fill="#48606a" opacity="0.85"/>
<polygon points="567.6175981147514,293.543683429836 543.0285468613214,391.8998884435561 592.2066493681815,391.8998884435561" fill="#48606a" opacity="0.85"/>
<polygon points="619.0540398960075,218.2518704674734 575.5558492203347,392.24463317016443 662.5522305716802,392.24463317016443" fill="#48606a" opacity="0.85"/>
<polygon points="649.3415303655671,250.77611788318663 611.5655247115064,401.8801404994293 687.1175360196278,401.8801404994293" fill="#48606a" opacity="0.85"/></g>
    <rect y="430.0" width="700" height="70.0" fill="#e9f0f3"/>
    <g><circle cx="357.0" cy="298.5" r="1.7" fill="#ffffff" opacity="0.81"/>
<circle cx="510.8" cy="380.5" r="2.0" fill="#ffffff" opacity="0.75"/>
<circle cx="513.7" cy="296.3" r="1.2" fill="#ffffff" opacity="0.52"/>
<circle cx="679.3" cy="279.0" r="1.8" fill="#ffffff" opacity="0.63"/>
<circle cx="99.5" cy="164.3" r="2.7" fill="#ffffff" opacity="0.53"/>
<circle cx="271.0" cy="486.7" r="2.1" fill="#ffffff" opacity="0.52"/>
<circle cx="57.3" cy="298.0" r="2.1" fill="#ffffff" opacity="0.42"/>
<circle cx="652.4" cy="311.4" r="2.2" fill="#ffffff" opacity="0.77"/>
<circle cx="277.3" cy="488.7" r="2.5" fill="#ffffff" opacity="0.48"/>
<circle cx="319.0" cy="484.1" r="2.3" fill="#ffffff" opacity="0.26"/>
<circle cx="596.6" cy="207.2" r="1.7" fill="#ffffff" opacity="0.54"/>
<circle cx="143.2" cy="333.3" r="2.4" fill="#ffffff" opacity="0.53"/>
<circle cx="336.8" cy="166.9" r="2.5" fill="#ffffff" opacity="0.75"/>
<circle cx="35.6" cy="315.4" r="2.8" fill="#ffffff" opacity="0.84"/>
<circle cx="543.8" cy="476.4" r="2.4" fill="#ffffff" opacity="0.76"/>
<circle cx="517.0" cy="125.5" r="2.6" fill="#ffffff" opacity="0.62"/>
<circle cx="372.6" cy="119.5" r="3.1" fill="#ffffff" opacity="0.74"/>
<circle cx="550.2" cy="121.4" r="1.4" fill="#ffffff" opacity="0.36"/>
<circle cx="266.1" cy="170.1" r="2.6" fill="#ffffff" opacity="0.49"/>
<circle cx="696.2" cy="26.9" r="1.9" fill="#ffffff" opacity="0.78"/>
<circle cx="351.1" cy="335.8" r="2.9" fill="#ffffff" opacity="0.63"/>
<circle cx="119.7" cy="25.5" r="3.2" fill="#ffffff" opacity="0.50"/>
<circle cx="362.6" cy="54.8" r="2.1" fill="#ffffff" opacity="0.46"/>
<circle cx="115.1" cy="339.2" r="2.5" fill="#ffffff" opacity="0.61"/>
<circle cx="582.5" cy="483.9" r="2.9" fill="#ffffff" opacity="0.29"/>
<circle cx="366.9" cy="333.1" r="3.0" fill="#ffffff" opacity="0.57"/>
<circle cx="315.0" cy="144.5" r="1.5" fill="#ffffff" opacity="0.75"/>
<circle cx="12.1" cy="369.5" r="3.1" fill="#ffffff" opacity="0.28"/>
<circle cx="128.5" cy="140.7" r="2.8" fill="#ffffff" opacity="0.74"/>
<circle cx="642.8" cy="304.4" r="2.1" fill="#ffffff" opacity="0.54"/>
<circle cx="390.4" cy="366.9" r="1.6" fill="#ffffff" opacity="0.79"/>
<circle cx="130.3" cy="489.0" r="2.0" fill="#ffffff" opacity="0.27"/>
<circle cx="71.1" cy="332.8" r="3.0" fill="#ffffff" opacity="0.30"/>
<circle cx="16.3" cy="166.8" r="2.7" fill="#ffffff" opacity="0.37"/>
<circle cx="280.0" cy="134.3" r="1.0" fill="#ffffff" opacity="0.31"/>
<circle cx="245.6" cy="313.9" r="2.6" fill="#ffffff" opacity="0.65"/>
<circle cx="632.7" cy="294.5" r="2.4" fill="#ffffff" opacity="0.68"/>
<circle cx="220.3" cy="496.5" r="1.3" fill="#ffffff" opacity="0.79"/>
<circle cx="329.5" cy="114.3" r="1.8" fill="#ffffff" opacity="0.59"/>
<circle cx="114.9" cy="38.6" r="1.6" fill="#ffffff" opacity="0.83"/>
<circle cx="532.2" cy="175.6" r="2.5" fill="#ffffff" opacity="0.38"/>
<circle cx="89.3" cy="223.2" r="1.8" fill="#ffffff" opacity="0.83"/>
<circle cx="66.3" cy="385.4" r="1.2" fill="#ffffff" opacity="0.82"/>
<circle cx="524.5" cy="478.5" r="2.4" fill="#ffffff" opacity="0.32"/>
<circle cx="660.3" cy="470.9" r="2.5" fill="#ffffff" opacity="0.69"/>
<circle cx="480.4" cy="215.0" r="1.6" fill="#ffffff" opacity="0.40"/>
<circle cx="400.0" cy="147.7" r="2.4" fill="#ffffff" opacity="0.42"/>
<circle cx="49.9" cy="423.7" r="2.4" fill="#ffffff" opacity="0.58"/>
<circle cx="499.7" cy="471.5" r="2.2" fill="#ffffff" opacity="0.44"/>
<circle cx="686.9" cy="47.3" r="2.1" fill="#ffffff" opacity="0.62"/></g>
</svg>